<?xml version="1.0" encoding="UTF-8"?>
<svg data-name="Layer 1" viewBox="0 0 100 125" xmlns="http://www.w3.org/2000/svg">
<defs>
<style>.cls-1 {
        stroke-width: 0px;
        fill: #FFFFFF
      }</style>
</defs>
<path class="cls-1" d="m85.457,54.54c0-18.737-14.61-34.123-33.036-35.371v-4.33h2.121c1.336,0,2.419-1.083,2.419-2.419s-1.083-2.419-2.419-2.419h-9.084c-1.336,0-2.419,1.083-2.419,2.419s1.083,2.419,2.419,2.419h2.125v4.33c-18.428,1.248-33.04,16.634-33.04,35.371,0,10.062,4.213,19.159,10.968,25.619l-5.711,5.711c-.945.945-.945,2.477,0,3.421.472.472,1.091.709,1.711.709s1.238-.236,1.711-.709l6.022-6.022c5.84,4.231,13.013,6.73,20.759,6.73s14.917-2.499,20.755-6.729l6.021,6.021c.472.472,1.091.709,1.711.709s1.238-.236,1.711-.709c.945-.945.945-2.476,0-3.421l-5.71-5.71c6.754-6.46,10.967-15.557,10.967-25.62Zm-62.749,0c0-15.048,12.244-27.29,27.294-27.29s27.29,12.242,27.29,27.29-12.242,27.294-27.29,27.294-27.294-12.244-27.294-27.294Zm41.569,8.246c-.448.776-1.261,1.21-2.097,1.21-.41,0-.826-.105-1.207-.325l-8.248-4.763c-.79.495-1.723.782-2.722.782-2.84,0-5.15-2.31-5.15-5.15,0-1.964,1.108-3.675,2.731-4.542v-12.498c0-1.336,1.083-2.419,2.419-2.419s2.419,1.083,2.419,2.419v12.499c1.621.867,2.727,2.577,2.727,4.54,0,.06-.002.119-.005.178l8.248,4.762c1.157.668,1.553,2.148.885,3.305Zm21.345-27.066c-3.788-7.14-9.659-13.011-16.799-16.799,4.67-4.126,11.827-3.958,16.292.507h0c4.465,4.465,4.632,11.623.507,16.292Zm-71.242,0c-4.126-4.67-3.959-11.827.506-16.293,2.241-2.241,5.231-3.476,8.417-3.476,2.937,0,5.705,1.051,7.876,2.97-7.14,3.788-13.011,9.659-16.799,16.798Z"/>
</svg>
